<?xml version="1.0" encoding="iso-8859-1"?>
<!-- Uploaded to: SVG Repo, www.svgrepo.com, Generator: SVG Repo Mixer Tools -->
<svg fill="#a89b9d" height="800px" width="800px" version="1.1" id="Layer_1" xmlns="http://www.w3.org/2000/svg" xmlns:xlink="http://www.w3.org/1999/xlink" 
	 viewBox="0 0 512 512" xml:space="preserve">
<g>
	<g>
		<g>
			<path d="M490.667,42.667H192c-11.797,0-21.333,9.557-21.333,21.333v213.333c0,11.776,9.536,21.333,21.333,21.333h298.667
				c11.797,0,21.333-9.557,21.333-21.333V64C512,52.224,502.464,42.667,490.667,42.667z"/>
			<path d="M128,277.333v-64H21.333C9.536,213.333,0,222.891,0,234.667V448c0,11.776,9.536,21.333,21.333,21.333H320
				c11.797,0,21.333-9.557,21.333-21.333V341.333H192C156.715,341.333,128,312.619,128,277.333z"/>
		</g>
	</g>
</g>
</svg>