<svg xmlns="http://www.w3.org/2000/svg" xml:space="preserve" width="800" height="800" fill="#a89b9d" viewBox="0 0 512 512"><path d="M490.667 42.667H192c-11.797 0-21.333 9.557-21.333 21.333v213.333c0 11.776 9.536 21.333 21.333 21.333h298.667c11.797 0 21.333-9.557 21.333-21.333V64c0-11.776-9.536-21.333-21.333-21.333"/><path d="M128 277.333v-64H21.333C9.536 213.333 0 222.891 0 234.667V448c0 11.776 9.536 21.333 21.333 21.333H320c11.797 0 21.333-9.557 21.333-21.333V341.333H192c-35.285 0-64-28.714-64-64"/></svg>